<svg width="38" height="39" viewBox="0 0 38 39" fill="none" xmlns="http://www.w3.org/2000/svg">
<path d="M27.0496 9.45573C27.0496 8.92291 27.2616 8.41191 27.639 8.03514C28.0164 7.65838 28.5283 7.44672 29.062 7.44672C29.5957 7.44672 30.1076 7.65838 30.485 8.03514C30.8624 8.41191 31.0744 8.92291 31.0744 9.45573C31.0744 9.98855 30.8624 10.4996 30.485 10.8763C30.1076 11.2531 29.5957 11.4647 29.062 11.4647C28.5283 11.4647 28.0164 11.2531 27.639 10.8763C27.2616 10.4996 27.0496 9.98855 27.0496 9.45573Z" fill="#E6E6E6"/>
<path fill-rule="evenodd" clip-rule="evenodd" d="M19 9.95795C16.4648 9.95795 14.0334 10.9633 12.2408 12.753C10.4481 14.5426 9.44102 16.9699 9.44102 19.5008C9.44102 22.0317 10.4481 24.4589 12.2408 26.2486C14.0334 28.0382 16.4648 29.0436 19 29.0436C21.5352 29.0436 23.9665 28.0382 25.7592 26.2486C27.5518 24.4589 28.5589 22.0317 28.5589 19.5008C28.5589 16.9699 27.5518 14.5426 25.7592 12.753C23.9665 10.9633 21.5352 9.95795 19 9.95795ZM12.4596 19.5008C12.4596 17.7691 13.1487 16.1083 14.3753 14.8839C15.6018 13.6594 17.2654 12.9715 19 12.9715C20.7346 12.9715 22.3981 13.6594 23.6247 14.8839C24.8512 16.1083 25.5403 17.7691 25.5403 19.5008C25.5403 21.2324 24.8512 22.8932 23.6247 24.1177C22.3981 25.3422 20.7346 26.0301 19 26.0301C17.2654 26.0301 15.6018 25.3422 14.3753 24.1177C13.1487 22.8932 12.4596 21.2324 12.4596 19.5008Z" fill="#E6E6E6"/>
<path fill-rule="evenodd" clip-rule="evenodd" d="M29.5812 1.08398C22.5486 0.305339 15.4514 0.305339 8.41875 1.08398C4.36978 1.53601 1.09962 4.7203 0.624691 8.78253C-0.20823 15.9037 -0.20823 23.0975 0.624691 30.2187C1.09962 34.2809 4.36777 37.4652 8.41875 37.9172C15.4514 38.6943 22.5485 38.6943 29.5812 37.9172C33.6302 37.4652 36.9004 34.2809 37.3753 30.2187C38.2082 23.0975 38.2082 15.9037 37.3753 8.78253C36.9004 4.7203 33.6322 1.53601 29.5812 1.08398ZM8.75281 4.07742C15.5634 3.32345 22.4366 3.32345 29.2472 4.07742C31.9237 4.37877 34.0669 6.48622 34.3788 9.1341C35.1861 16.0216 35.1861 22.9796 34.3788 29.8671C34.2175 31.163 33.6233 32.3668 32.6921 33.284C31.761 34.2011 30.5473 34.7781 29.2472 34.9218C22.4366 35.6758 15.5634 35.6758 8.75281 34.9218C7.45268 34.7781 6.23901 34.2011 5.30788 33.284C4.37674 32.3668 3.78251 31.163 3.62117 29.8671C2.8139 22.9796 2.8139 16.0216 3.62117 9.1341C3.78251 7.83821 4.37674 6.63445 5.30788 5.71728C6.23901 4.80011 7.45268 4.22108 8.75281 4.07742Z" fill="#E6E6E6"/>
</svg>
