<svg width="38" height="39" viewBox="0 0 38 39" fill="none" xmlns="http://www.w3.org/2000/svg">
<path fill-rule="evenodd" clip-rule="evenodd" d="M31.6667 0.5C33.3464 0.5 34.9573 1.16726 36.145 2.35499C37.3327 3.54272 38 5.15363 38 6.83333V32.1667C38 33.8464 37.3327 35.4573 36.145 36.645C34.9573 37.8327 33.3464 38.5 31.6667 38.5H6.33333C4.65363 38.5 3.04272 37.8327 1.85499 36.645C0.66726 35.4573 0 33.8464 0 32.1667V6.83333C0 5.15363 0.66726 3.54272 1.85499 2.35499C3.04272 1.16726 4.65363 0.5 6.33333 0.5H31.6667ZM10.5556 15.2778C9.99565 15.2778 9.45868 15.5002 9.06278 15.8961C8.66687 16.292 8.44444 16.829 8.44444 17.3889V27.9444C8.44444 28.5043 8.66687 29.0413 9.06278 29.4372C9.45868 29.8331 9.99565 30.0556 10.5556 30.0556C11.1155 30.0556 11.6524 29.8331 12.0483 29.4372C12.4442 29.0413 12.6667 28.5043 12.6667 27.9444V17.3889C12.6667 16.829 12.4442 16.292 12.0483 15.8961C11.6524 15.5002 11.1155 15.2778 10.5556 15.2778ZM16.8889 13.1667C16.329 13.1667 15.792 13.3891 15.3961 13.785C15.0002 14.1809 14.7778 14.7179 14.7778 15.2778V27.9444C14.7778 28.5043 15.0002 29.0413 15.3961 29.4372C15.792 29.8331 16.329 30.0556 16.8889 30.0556C17.4488 30.0556 17.9858 29.8331 18.3817 29.4372C18.7776 29.0413 19 28.5043 19 27.9444V20.2178C19.6439 19.4916 20.7311 18.6387 21.9408 18.1214C22.6438 17.8217 23.7014 17.6992 24.4361 17.9314C24.6798 17.9933 24.8969 18.1326 25.0547 18.3283C25.1644 18.4761 25.3333 18.8054 25.3333 19.5V27.9444C25.3333 28.5043 25.5558 29.0413 25.9517 29.4372C26.3476 29.8331 26.8845 30.0556 27.4444 30.0556C28.0043 30.0556 28.5413 29.8331 28.9372 29.4372C29.3331 29.0413 29.5556 28.5043 29.5556 27.9444V19.5C29.5556 18.0856 29.1967 16.8273 28.4493 15.8182C27.7617 14.9032 26.7992 14.2322 25.7028 13.9034C23.7986 13.306 21.6896 13.6374 20.2814 14.2412C19.8307 14.4351 19.3915 14.655 18.9662 14.8999C18.8777 14.4135 18.6213 13.9735 18.2417 13.6568C17.8621 13.34 17.3833 13.1666 16.8889 13.1667ZM10.5556 8.94444C9.99565 8.94444 9.45868 9.16687 9.06278 9.56278C8.66687 9.95868 8.44444 10.4957 8.44444 11.0556C8.44444 11.6155 8.66687 12.1524 9.06278 12.5483C9.45868 12.9442 9.99565 13.1667 10.5556 13.1667C11.1155 13.1667 11.6524 12.9442 12.0483 12.5483C12.4442 12.1524 12.6667 11.6155 12.6667 11.0556C12.6667 10.4957 12.4442 9.95868 12.0483 9.56278C11.6524 9.16687 11.1155 8.94444 10.5556 8.94444Z" fill="#E6E6E6"/>
</svg>
