<svg width="35" height="35" viewBox="0 0 35 35" fill="none" xmlns="http://www.w3.org/2000/svg">
<rect x="0.5" y="0.5" width="33.0969" height="33.4789" rx="11.5" stroke="#EFFF00"/>
<path d="M16.75 10.2849C16.9489 10.2849 17.1397 10.3663 17.2803 10.5112C17.421 10.6562 17.5 10.8527 17.5 11.0576V16.4667H22.75C22.9489 16.4667 23.1397 16.5481 23.2803 16.6931C23.421 16.838 23.5 17.0345 23.5 17.2395C23.5 17.4444 23.421 17.6409 23.2803 17.7859C23.1397 17.9308 22.9489 18.0122 22.75 18.0122H17.5V23.4213C17.5 23.6262 17.421 23.8228 17.2803 23.9677C17.1397 24.1126 16.9489 24.194 16.75 24.194C16.5511 24.194 16.3603 24.1126 16.2197 23.9677C16.079 23.8228 16 23.6262 16 23.4213V18.0122H10.75C10.5511 18.0122 10.3603 17.9308 10.2197 17.7859C10.079 17.6409 10 17.4444 10 17.2395C10 17.0345 10.079 16.838 10.2197 16.6931C10.3603 16.5481 10.5511 16.4667 10.75 16.4667H16V11.0576C16 10.8527 16.079 10.6562 16.2197 10.5112C16.3603 10.3663 16.5511 10.2849 16.75 10.2849Z" fill="#EFFF00"/>
</svg>
