<svg width="16" height="16" viewBox="0 0 16 16" fill="none" xmlns="http://www.w3.org/2000/svg">
<g clip-path="url(#clip0_227_451)">
<path d="M12.2381 8.4856C12.2599 10.8356 14.2999 11.6177 14.3224 11.6277C14.3051 11.6827 13.9965 12.7422 13.2478 13.8364C12.6005 14.7824 11.9286 15.7249 10.8705 15.7446C9.83077 15.7636 9.49639 15.1279 8.30752 15.1279C7.11902 15.1279 6.74764 15.7249 5.76327 15.7636C4.74177 15.8024 3.96389 14.7405 3.31127 13.7981C1.97777 11.8701 0.958644 8.34998 2.32702 5.97385C3.00677 4.79385 4.22177 4.04673 5.54039 4.02748C6.5434 4.00835 7.49014 4.70223 8.10327 4.70223C8.71602 4.70223 9.86652 3.86773 11.076 3.99023C11.5824 4.01135 13.0036 4.19473 13.9163 5.53073C13.8429 5.57635 12.2205 6.52085 12.2381 8.4856ZM10.284 2.71485C10.8263 2.05848 11.1913 1.14448 11.0918 0.235352C10.31 0.266727 9.36477 0.756226 8.80414 1.41235C8.30164 1.99323 7.86164 2.92323 7.98027 3.81435C8.85164 3.88185 9.74164 3.3716 10.284 2.71485Z" fill="#474747"/>
</g>
<defs>
<clipPath id="clip0_227_451">
<rect width="16" height="16" fill="white"/>
</clipPath>
</defs>
</svg>
