<svg width="38" height="38" viewBox="0 0 38 38" fill="none" xmlns="http://www.w3.org/2000/svg">
<path d="M27.0496 8.9557C27.0496 8.42288 27.2616 7.91188 27.639 7.53511C28.0164 7.15835 28.5283 6.94669 29.062 6.94669C29.5957 6.94669 30.1076 7.15835 30.485 7.53511C30.8624 7.91188 31.0744 8.42288 31.0744 8.9557C31.0744 9.48852 30.8624 9.99952 30.485 10.3763C30.1076 10.7531 29.5957 10.9647 29.062 10.9647C28.5283 10.9647 28.0164 10.7531 27.639 10.3763C27.2616 9.99952 27.0496 9.48852 27.0496 8.9557Z" fill="#E6E6E6"/>
<path fill-rule="evenodd" clip-rule="evenodd" d="M19 9.45798C16.4648 9.45798 14.0334 10.4634 12.2408 12.253C10.4481 14.0426 9.44102 16.4699 9.44102 19.0008C9.44102 21.5317 10.4481 23.959 12.2408 25.7486C14.0334 27.5382 16.4648 28.5436 19 28.5436C21.5352 28.5436 23.9665 27.5382 25.7592 25.7486C27.5518 23.959 28.5589 21.5317 28.5589 19.0008C28.5589 16.4699 27.5518 14.0426 25.7592 12.253C23.9665 10.4634 21.5352 9.45798 19 9.45798ZM12.4596 19.0008C12.4596 17.2691 13.1487 15.6084 14.3753 14.3839C15.6018 13.1594 17.2654 12.4715 19 12.4715C20.7346 12.4715 22.3981 13.1594 23.6247 14.3839C24.8512 15.6084 25.5403 17.2691 25.5403 19.0008C25.5403 20.7325 24.8512 22.3932 23.6247 23.6177C22.3981 24.8422 20.7346 25.5301 19 25.5301C17.2654 25.5301 15.6018 24.8422 14.3753 23.6177C13.1487 22.3932 12.4596 20.7325 12.4596 19.0008Z" fill="#E6E6E6"/>
<path fill-rule="evenodd" clip-rule="evenodd" d="M29.5812 0.583984C22.5486 -0.194661 15.4514 -0.194661 8.41875 0.583984C4.36978 1.03601 1.09962 4.2203 0.624691 8.28253C-0.20823 15.4037 -0.20823 22.5975 0.624691 29.7187C1.09962 33.7809 4.36777 36.9652 8.41875 37.4172C15.4514 38.1943 22.5485 38.1943 29.5812 37.4172C33.6302 36.9652 36.9004 33.7809 37.3753 29.7187C38.2082 22.5975 38.2082 15.4037 37.3753 8.28253C36.9004 4.2203 33.6322 1.03601 29.5812 0.583984ZM8.75281 3.57742C15.5634 2.82345 22.4366 2.82345 29.2472 3.57742C31.9237 3.87877 34.0669 5.98622 34.3788 8.6341C35.1861 15.5216 35.1861 22.4796 34.3788 29.3671C34.2175 30.663 33.6233 31.8668 32.6921 32.784C31.761 33.7011 30.5473 34.2781 29.2472 34.4218C22.4366 35.1758 15.5634 35.1758 8.75281 34.4218C7.45268 34.2781 6.23901 33.7011 5.30788 32.784C4.37674 31.8668 3.78251 30.663 3.62117 29.3671C2.8139 22.4796 2.8139 15.5216 3.62117 8.6341C3.78251 7.33821 4.37674 6.13445 5.30788 5.21728C6.23901 4.30011 7.45268 3.72108 8.75281 3.57742Z" fill="#E6E6E6"/>
</svg>
