<svg width="29" height="32" viewBox="0 0 29 32" fill="none" xmlns="http://www.w3.org/2000/svg">
<path fill-rule="evenodd" clip-rule="evenodd" d="M8.41935 9.00813C8.41935 8.15347 8.58957 7.30718 8.92028 6.51758C9.25099 5.72797 9.73571 5.01052 10.3468 4.40619C10.9579 3.80185 11.6833 3.32247 12.4817 2.9954C13.2801 2.66834 14.1358 2.5 15 2.5C15.8642 2.5 16.7199 2.66834 17.5183 2.9954C18.3167 3.32247 19.0422 3.80185 19.6532 4.40619C20.2643 5.01052 20.749 5.72797 21.0797 6.51758C21.4104 7.30718 21.5806 8.15347 21.5806 9.00813C21.5806 10.7342 20.8873 12.3896 19.6532 13.6101C18.4191 14.8306 16.7453 15.5163 15 15.5163C13.2547 15.5163 11.5809 14.8306 10.3468 13.6101C9.11267 12.3896 8.41935 10.7342 8.41935 9.00813ZM15 4.79699C13.8707 4.79699 12.7876 5.24066 11.9891 6.0304C11.1906 6.82014 10.7419 7.89126 10.7419 9.00813C10.7419 10.125 11.1906 11.1961 11.9891 11.9859C12.7876 12.7756 13.8707 13.2193 15 13.2193C16.1293 13.2193 17.2124 12.7756 18.0109 11.9859C18.8095 11.1961 19.2581 10.125 19.2581 9.00813C19.2581 7.89126 18.8095 6.82014 18.0109 6.0304C17.2124 5.24066 16.1293 4.79699 15 4.79699ZM8.80645 20.1102C7.88247 20.1102 6.99634 20.4732 6.34298 21.1194C5.68963 21.7655 5.32258 22.6419 5.32258 23.5557V25.3749C5.32258 25.4025 5.34271 25.427 5.37058 25.4316C11.7484 26.4606 18.2532 26.4606 24.6294 25.4316C24.6426 25.4286 24.6544 25.4214 24.663 25.4112C24.6717 25.401 24.6768 25.3883 24.6774 25.3749V23.5557C24.6774 22.6419 24.3104 21.7655 23.657 21.1194C23.0037 20.4732 22.1175 20.1102 21.1936 20.1102H20.6671C20.6257 20.1109 20.5845 20.1171 20.5448 20.1286L19.2054 20.562C16.4728 21.4444 13.5272 21.4444 10.7946 20.562L9.45368 20.1286C9.41491 20.1174 9.37483 20.1112 9.33445 20.1102H8.80645ZM3 23.5557C3 22.0327 3.61175 20.5721 4.70067 19.4952C5.78959 18.4183 7.26649 17.8132 8.80645 17.8132H9.3329C9.62194 17.8143 9.90271 17.8582 10.1752 17.9449L11.5161 18.3783C13.7799 19.1092 16.2201 19.1092 18.4839 18.3783L19.8248 17.9449C20.0957 17.8577 20.3806 17.8132 20.6655 17.8132H21.1936C22.7335 17.8132 24.2104 18.4183 25.2993 19.4952C26.3883 20.5721 27 22.0327 27 23.5557V25.3749C27 26.5295 26.1546 27.5127 25.0026 27.6979C18.378 28.7674 11.622 28.7674 4.99742 27.6979C4.44028 27.6073 3.93375 27.3241 3.56798 26.8987C3.20221 26.4733 3.00094 25.9333 3 25.3749V23.5557Z" fill="#E6E6E6"/>
</svg>
