<svg width="20" height="21" viewBox="0 0 20 21" fill="none" xmlns="http://www.w3.org/2000/svg">
<path d="M10 10.4412C8.9 10.4412 8 9.58616 8 8.54116C8 7.49616 8.9 6.64116 10 6.64116C11.1 6.64116 12 7.49616 12 8.54116C12 9.58616 11.1 10.4412 10 10.4412ZM16 8.73116C16 5.28266 13.35 2.84116 10 2.84116C6.65 2.84116 4 5.28266 4 8.73116C4 10.9542 5.95 13.8992 10 17.4142C14.05 13.8992 16 10.9542 16 8.73116ZM10 0.941162C14.2 0.941162 18 4.00016 18 8.73116C18 11.8852 15.33 15.6187 10 19.9412C4.67 15.6187 2 11.8852 2 8.73116C2 4.00016 5.8 0.941162 10 0.941162Z" fill="#474747"/>
</svg>
