<svg width="24" height="26" viewBox="0 0 24 26" fill="none" xmlns="http://www.w3.org/2000/svg">
<path fill-rule="evenodd" clip-rule="evenodd" d="M5.41935 6.50813C5.41935 5.65347 5.58957 4.80718 5.92028 4.01758C6.25099 3.22797 6.73571 2.51052 7.34678 1.90619C7.95785 1.30185 8.6833 0.822466 9.4817 0.495402C10.2801 0.168337 11.1358 0 12 0C12.8642 0 13.7199 0.168337 14.5183 0.495402C15.3167 0.822466 16.0422 1.30185 16.6532 1.90619C17.2643 2.51052 17.749 3.22797 18.0797 4.01758C18.4104 4.80718 18.5806 5.65347 18.5806 6.50813C18.5806 8.23419 17.8873 9.88956 16.6532 11.1101C15.4191 12.3306 13.7453 13.0163 12 13.0163C10.2547 13.0163 8.58089 12.3306 7.34678 11.1101C6.11267 9.88956 5.41935 8.23419 5.41935 6.50813ZM12 2.29699C10.8707 2.29699 9.78764 2.74066 8.98909 3.5304C8.19055 4.32014 7.74194 5.39126 7.74194 6.50813C7.74194 7.62499 8.19055 8.69611 8.98909 9.48586C9.78764 10.2756 10.8707 10.7193 12 10.7193C13.1293 10.7193 14.2124 10.2756 15.0109 9.48586C15.8095 8.69611 16.2581 7.62499 16.2581 6.50813C16.2581 5.39126 15.8095 4.32014 15.0109 3.5304C14.2124 2.74066 13.1293 2.29699 12 2.29699ZM5.80645 17.6102C4.88247 17.6102 3.99634 17.9732 3.34298 18.6194C2.68963 19.2655 2.32258 20.1419 2.32258 21.0557V22.8749C2.32258 22.9025 2.34271 22.927 2.37058 22.9316C8.74839 23.9606 15.2532 23.9606 21.6294 22.9316C21.6426 22.9286 21.6544 22.9214 21.663 22.9112C21.6717 22.901 21.6768 22.8883 21.6774 22.8749V21.0557C21.6774 20.1419 21.3104 19.2655 20.657 18.6194C20.0037 17.9732 19.1175 17.6102 18.1936 17.6102H17.6671C17.6257 17.6109 17.5845 17.6171 17.5448 17.6286L16.2054 18.062C13.4728 18.9444 10.5272 18.9444 7.79458 18.062L6.45368 17.6286C6.41491 17.6174 6.37483 17.6112 6.33445 17.6102H5.80645ZM0 21.0557C0 19.5327 0.611749 18.0721 1.70067 16.9952C2.78959 15.9183 4.26649 15.3132 5.80645 15.3132H6.3329C6.62194 15.3143 6.90271 15.3582 7.17523 15.4449L8.51613 15.8783C10.7799 16.6092 13.2201 16.6092 15.4839 15.8783L16.8248 15.4449C17.0957 15.3577 17.3806 15.3132 17.6655 15.3132H18.1936C19.7335 15.3132 21.2104 15.9183 22.2993 16.9952C23.3883 18.0721 24 19.5327 24 21.0557V22.8749C24 24.0295 23.1546 25.0127 22.0026 25.1979C15.378 26.2674 8.62197 26.2674 1.99742 25.1979C1.44028 25.1073 0.93375 24.8241 0.567981 24.3987C0.202213 23.9733 0.000943239 23.4333 0 22.8749V21.0557Z" fill="#474747"/>
</svg>
