<svg width="21" height="21" viewBox="0 0 21 21" fill="none" xmlns="http://www.w3.org/2000/svg">
<path d="M15.2941 3.11765V1M5.76471 3.11765V1M1.26471 6.29412H19.7941M1 8.45835C1 6.21894 1 5.09871 1.46165 4.24318C1.87908 3.48009 2.52682 2.8683 3.31247 2.49506C4.21882 2.05882 5.40471 2.05882 7.77647 2.05882H13.2824C15.6541 2.05882 16.84 2.05882 17.7464 2.49506C18.5436 2.87835 19.1906 3.49035 19.5972 4.24212C20.0588 5.09976 20.0588 6.22 20.0588 8.45941V13.6604C20.0588 15.8998 20.0588 17.02 19.5972 17.8755C19.1797 18.6386 18.532 19.2504 17.7464 19.6236C16.84 20.0588 15.6541 20.0588 13.2824 20.0588H7.77647C5.40471 20.0588 4.21882 20.0588 3.31247 19.6226C2.52698 19.2496 1.87926 18.6382 1.46165 17.8755C1 17.0179 1 15.8976 1 13.6582V8.45835Z" stroke="#474747" stroke-width="1.5" stroke-linecap="round" stroke-linejoin="round"/>
</svg>
