<svg width="130" height="51" viewBox="0 0 130 51" fill="none" xmlns="http://www.w3.org/2000/svg">
<path d="M113.072 0.250487C111.948 0.524956 111.011 1.23858 110.49 2.17177C110.032 2.96774 109.574 5.13605 108.783 10.2412C108.47 12.1899 107.971 14.8523 107.679 16.1423C106.825 19.8476 106.596 21.3297 106.451 23.8549C106.201 27.9994 107.096 30.8813 109.053 32.1713C110.532 33.1594 112.697 33.5985 114.217 33.1868C116.882 32.5007 118.027 30.4147 118.027 26.2428C118.027 23.3059 117.569 21.467 115.904 17.844C114.092 13.8916 114.092 12.0252 115.945 12.0252C117.632 12.0252 118.548 14.1386 118.881 18.8321C119.36 25.6389 119.506 27.0662 119.964 28.7679C120.776 31.9243 122.254 33.2417 124.919 33.2143C127.168 33.2143 128.605 31.8419 129.5 28.8502C129.937 27.423 129.979 26.7917 130 22.8668C130 19.4634 129.916 18.1459 129.646 16.9382C128.73 13.1231 126.877 11.5037 124.274 12.2997C121.609 13.1231 120.11 12.8486 120.11 11.5037C120.11 10.7352 120.568 10.3784 121.879 10.1039C125.252 9.39032 126.772 8.07287 126.772 5.90456C126.772 2.69327 124.211 0.85432 118.86 0.22304C116.091 -0.0788768 114.342 -0.0788768 113.072 0.250487ZM119.86 3.02263C121.171 3.43433 121.9 4.14796 122.192 5.30073C122.775 7.66117 120.734 9.25309 117.09 9.28054C114.342 9.28054 113.259 8.51202 113.093 6.4535C112.864 3.79115 113.988 2.72071 117.049 2.69327C118.069 2.69327 119.318 2.8305 119.86 3.02263Z" fill="#EFFF00"/>
<path d="M5.90399 0.634816C3.23884 1.2661 1.9479 2.5561 1.9479 4.64207C1.9479 7.46911 3.65527 8.51209 9.23542 9.14337C10.922 9.3355 12.2129 9.85699 12.5044 10.4608C12.8167 11.0921 12.671 12.4919 12.2545 12.9859C11.505 13.8917 10.2349 13.8368 7.8612 12.7389C5.0503 11.4764 3.71773 11.4215 2.55173 12.5193C0.781901 14.2211 -0.113422 17.9264 0.0115067 23.0041C0.0739712 25.5567 0.178079 26.435 0.552865 27.5328C1.88544 31.4029 4.84209 33.2144 9.86007 33.2144C12.4836 33.2144 14.5241 32.6929 16.044 31.595C17.4807 30.5794 17.5224 30.4148 17.0018 29.015C16.6479 28.0818 16.5229 27.176 16.4605 25.0626C16.3564 21.6866 16.6687 19.7653 18.0845 15.1268C19.084 11.8881 19.1048 11.6959 18.7925 11.0647C17.9596 9.39039 15.3986 7.90826 12.3586 7.35932C11.4425 7.19464 10.0891 6.92017 9.36035 6.75549C7.34067 6.31634 6.71602 5.10867 7.77792 3.79121C8.25681 3.18738 8.54831 3.10504 10.3598 3.0227C12.0047 2.94036 12.7334 3.0227 14.1493 3.51675C16.6062 4.39505 17.8347 4.53228 18.0013 3.92845C18.4385 2.41887 16.9602 1.01907 14.3991 0.525026C12.3795 0.140769 7.73628 0.195664 5.90399 0.634816Z" fill="#EFFF00"/>
<path d="M22.6234 0.689507C22.0196 1.59526 21.853 2.33633 21.1243 6.97486C20.2498 12.5466 20.229 12.574 19.1671 15.8677C18.0219 19.4083 17.6263 21.6041 17.6055 24.3762C17.6055 26.2152 17.7096 27.0111 18.0844 28.1365C18.6674 29.9754 19.9583 31.5399 21.5407 32.3633C22.6443 32.9122 23.1232 32.9946 25.9965 32.9946C28.1619 33.022 29.557 32.8848 30.2233 32.6378C30.7646 32.4182 31.1811 32.1712 31.1394 32.0888C30.0775 29.5363 29.6819 26.7916 29.9734 23.7724C30.2025 21.3022 30.5772 19.573 31.6391 16.0873C32.0764 14.6326 32.3887 13.2328 32.3262 13.0132C32.2638 12.7936 31.7849 12.327 31.2643 11.9977C30.4315 11.4762 30.14 11.4213 28.4743 11.6134C26.3921 11.8055 25.8508 11.586 25.2886 10.1587C24.9346 9.25296 24.539 5.7672 24.539 3.4891C24.539 1.48547 24.1018 0.222909 23.4147 0.222909C23.1648 0.222909 22.79 0.442485 22.6234 0.689507Z" fill="#EFFF00"/>
<path d="M39.7597 0.524955C38.323 0.881765 36.803 2.17177 36.0326 3.65391C35.3455 4.97136 35.1373 5.84967 34.3461 10.2412C34.117 11.6135 33.4716 14.1935 32.951 16.005C31.4103 21.2749 31.1604 22.6198 31.1396 25.337C31.0979 29.2345 31.7434 31.1558 33.5132 32.336C34.6168 33.077 36.6364 33.4064 38.2813 33.1319C40.1553 32.7751 41.3213 31.787 42.0709 29.8932C42.6122 28.5483 42.6539 28.164 42.6539 25.5017C42.6539 22.0708 42.404 20.7259 41.0298 16.8284C40.3635 14.8797 40.072 13.7269 40.0512 12.8486C40.0512 11.6959 40.1136 11.5861 40.7799 11.1469C41.8002 10.4608 44.7568 10.4608 45.7771 11.1469C46.4642 11.5861 46.5058 11.6959 46.485 12.8761C46.485 13.8093 46.2143 14.8523 45.5272 16.7461C44.1114 20.5612 43.8199 22.0983 43.8199 25.4742C43.8199 27.9445 43.8823 28.5483 44.3196 29.7011C44.8609 31.2107 46.0269 32.4458 47.3179 32.9124C48.9419 33.5162 52.0443 33.2143 53.0438 32.3634C53.2936 32.1439 53.1895 31.8694 52.4608 30.8264C50.6493 28.2464 49.9414 24.843 49.9414 18.887C49.9414 14.7425 50.2121 12.5467 51.1074 9.28054C51.6487 7.27691 51.6487 7.22201 51.3156 5.82222C50.92 4.1754 49.6082 2.06198 48.5047 1.34836C48.0883 1.07389 47.2554 0.689637 46.6516 0.524955C45.3815 0.168144 41.1131 0.168144 39.7597 0.524955ZM46.3393 3.26965C47.2138 3.62646 47.651 4.47732 47.651 5.79477C47.651 8.10032 46.839 8.59436 43.0703 8.59436C40.1553 8.56691 39.2808 8.2101 38.8852 6.8652C38.5728 5.82222 38.8852 4.36753 39.5723 3.7088C40.5301 2.77561 44.4861 2.50114 46.3393 3.26965Z" fill="#EFFF00"/>
<path d="M59.5399 0.634633C55.5839 2.11677 52.7938 6.31616 51.5861 12.6015C51.0656 15.3188 50.9615 21.4943 51.3987 24.239C51.9817 27.9718 53.4392 30.6342 55.6463 31.9242C58.832 33.7906 64.3081 33.9003 67.1814 32.1986C68.3474 31.485 68.4099 31.3752 67.9726 30.5518C67.4313 29.4814 67.1814 27.8346 67.1814 25.3643C67.2022 22.5922 67.4937 20.6709 68.6598 15.5932C69.8466 10.4332 69.8258 10.79 69.0554 10.0764C68.0559 9.11575 66.4735 9.0883 64.2248 9.93915C63.2253 10.3234 61.9761 10.6528 61.4555 10.6528C59.5191 10.6528 58.5405 9.19809 58.7487 6.56318C58.8945 4.86147 59.3317 3.90082 60.3728 3.10486C61.2889 2.41869 63.6001 2.39124 65.6823 3.07741C67.3688 3.62635 68.0143 3.5989 68.3474 2.88528C68.5348 2.47358 68.4724 2.28145 67.9935 1.73251C67.1606 0.771868 66.182 0.469951 63.267 0.332716C61.3306 0.250376 60.3728 0.332716 59.5399 0.634633Z" fill="#EFFF00"/>
<path d="M73.0115 0.909455C72.5742 1.48584 72.3244 2.39159 71.8246 5.10884C71.4915 7.03013 71.1167 9.33567 70.9918 10.2689C70.8669 11.1746 70.3047 13.9742 69.7217 16.4993C68.1392 23.5258 67.9727 26.8468 69.0137 29.7562C70.2839 33.242 75.5933 34.5594 78.2585 32.0343C79.5494 30.7992 80.1324 28.9603 80.1324 26.1058C80.1324 23.4983 79.7576 21.9338 78.3418 18.6676C77.1758 15.9504 76.801 13.9742 77.3007 13.0136C77.6963 12.1902 78.5083 11.8608 79.2787 12.1902C80.4656 12.7391 80.9861 15.374 81.3609 22.7298C81.6732 28.7956 82.5061 31.2658 84.6507 32.6381C85.9208 33.4616 88.1695 33.5164 89.3355 32.7754L90.1267 32.2813L89.2939 31.0462C87.2117 27.9173 87.2742 22.9494 89.5021 14.4134C90.21 11.6961 90.2725 10.8727 89.8144 10.3787C89.2314 9.74738 87.7947 9.74738 86.2956 10.3512C83.8178 11.3667 82.631 10.955 82.631 9.08865C82.631 6.09693 85.4627 3.13266 87.8156 3.6267C88.8358 3.84628 89.5646 3.16011 89.5646 2.00733C89.5646 0.827114 88.8566 0.223281 87.5032 0.223281C85.4419 0.223281 83.8595 1.62308 82.5894 4.6148C80.8404 8.67695 80.0908 9.55525 78.321 9.55525C76.3637 9.55525 75.5725 8.04567 75.5309 4.20309C75.5309 3.13266 75.4268 1.84265 75.281 1.32116C75.0728 0.497751 74.927 0.360516 74.2816 0.278175C73.7194 0.223281 73.4279 0.360516 73.0115 0.909455Z" fill="#EFFF00"/>
<path d="M94.7906 0.524871C93.6871 0.854234 92.9375 1.78743 92.646 3.13233C92.5211 3.73617 92.1254 6.17894 91.7923 8.59428C91.4383 11.0096 90.7512 14.6601 90.2307 16.6911C89.731 18.7222 89.2104 21.4669 89.0647 22.7569C88.8357 24.8154 88.8565 25.3644 89.148 26.9837C89.3354 27.9993 89.7518 29.2618 90.0433 29.7833C90.7512 31.0184 92.4169 32.2261 94.1868 32.7751C97.4141 33.7631 103.577 33.4887 105.805 32.2536L106.596 31.8144L106.097 30.497C105.514 28.9874 105.118 26.7916 105.118 25.0899C105.118 23.3058 105.722 19.1065 106.367 16.3892C106.68 15.0718 106.888 13.8915 106.825 13.8092C106.617 13.5347 104.306 13.672 102.682 14.0837C99.9127 14.7973 98.1637 14.4679 97.6431 13.1779C97.2892 12.2996 97.3725 10.79 97.7889 10.3234C98.4343 9.55492 99.0798 9.50003 102.078 9.96662C105.493 10.5156 106.471 10.4058 106.825 9.39024C107.034 8.8413 106.992 8.59428 106.638 7.963C106.242 7.27682 106.117 7.22193 104.577 7.22193C103.661 7.24938 102.036 7.35916 100.933 7.46895C98.476 7.77087 97.9346 7.60619 97.4141 6.45341C96.7062 4.94383 96.9977 3.26957 98.0804 2.66573C98.9132 2.22658 101.641 2.50105 103.91 3.24212C106.388 4.06553 107.304 3.70872 106.7 2.11679C106.367 1.23849 105.68 0.826787 103.952 0.497424C102.182 0.16806 95.9566 0.195507 94.7906 0.524871Z" fill="#EFFF00"/>
<path d="M8.83995 37.8255C4.67565 39.9663 4.30086 47.4044 8.19448 50.2315C9.02734 50.8353 9.50624 51 10.6514 51C13.7122 51 15.836 48.2553 15.8568 44.2755C15.8568 41.3387 14.5867 38.841 12.5462 37.8255C11.1511 37.1393 10.1725 37.1393 8.83995 37.8255ZM11.5884 41.174C12.4629 41.6406 13.2125 42.0523 13.2541 42.0797C13.2749 42.1072 13.2541 42.3542 13.1708 42.6012C13.0042 43.1776 12.7127 43.1502 11.5051 42.4914C10.7347 42.0523 10.4848 41.9974 10.3391 42.2719C10.006 42.958 10.1933 43.26 11.2136 43.754C11.9215 44.0834 12.2547 44.4127 12.2547 44.7146C12.2547 45.5106 11.9424 45.5381 10.8805 44.9342C9.92267 44.3578 9.88102 44.3578 9.61034 44.8519C9.17309 45.6204 9.25638 45.7576 10.5473 46.4987C11.9632 47.3496 11.8799 47.2398 11.7133 47.8162C11.5467 48.3925 11.0678 48.2828 9.21473 47.1574L7.9238 46.3889L8.86077 43.3423C9.38131 41.668 9.8602 40.2957 9.90184 40.2957C9.94349 40.2957 10.6931 40.6799 11.5884 41.174Z" fill="#E6E6E6"/>
<path d="M30.7858 37.5235C27.9124 38.6763 26.3092 42.4365 27.1212 46.1144C27.7875 49.1885 29.6822 51 32.1808 51C33.3676 51 33.7633 50.8628 34.7002 50.1491C38.573 47.2398 37.9692 39.6095 33.7216 37.6882C32.743 37.2491 31.6395 37.1942 30.7858 37.5235ZM33.3676 42.4091C33.5967 46.087 33.5342 47.1025 33.097 47.4319C32.7222 47.6789 32.4515 47.377 30.8899 45.044C29.0992 42.4091 29.0992 42.3817 29.5781 42.0523C30.0154 41.7229 30.1195 41.7778 30.7441 42.711C31.0981 43.26 31.6186 44.1383 31.8893 44.6049C32.389 45.5929 32.743 45.7851 32.5764 45.0166C32.5348 44.7695 32.4099 43.6991 32.3266 42.6561C32.2225 41.2014 32.2641 40.7348 32.4723 40.5427C33.097 40.0212 33.2219 40.3231 33.3676 42.4091Z" fill="#E6E6E6"/>
<path d="M52.1068 37.7157C47.9216 39.6918 47.4011 47.2672 51.2531 50.1766C52.1692 50.8628 52.5648 51 53.7517 51C55.4798 51 56.7291 50.2864 57.7702 48.7219C60.123 45.0715 59.0195 39.4997 55.6256 37.8255C54.3347 37.1942 53.3144 37.1667 52.1068 37.7157ZM54.7719 41.174C56.3335 42.0248 56.7708 42.6012 56.0837 42.958C55.8963 43.0404 55.2925 42.8483 54.7303 42.5463L53.6892 41.9699L53.4602 42.5463C53.2519 43.0678 53.4602 43.5619 53.9182 43.5893C54.0015 43.5893 54.3971 43.7814 54.8136 44.001C55.4798 44.3578 55.5423 44.4951 55.3549 44.9617C55.1467 45.4832 55.1259 45.4832 54.064 44.9342C53.0229 44.4127 52.9604 44.3853 52.7106 44.8519C52.2942 45.6204 52.3566 45.7576 53.6892 46.5261C55.001 47.2672 55.0426 47.3221 54.7511 47.9534C54.5845 48.2828 54.2722 48.173 52.8772 47.4319C51.9402 46.9378 51.1906 46.4164 51.1906 46.2517C51.1906 45.8674 52.9396 40.2957 53.0437 40.2957C53.1062 40.2957 53.8766 40.6799 54.7719 41.174Z" fill="#E6E6E6"/>
<path d="M74.0942 37.5235C72.4701 38.1823 71.3458 39.4997 70.5962 41.6406C69.7009 44.2206 70.2422 47.377 71.9288 49.3532C73.0115 50.5883 73.8652 51 75.4476 51C77.0092 51 78.0086 50.4511 79.0913 49.0238C81.7981 45.4557 80.5905 39.1155 76.9259 37.6882C75.8224 37.2491 74.927 37.1942 74.0942 37.5235ZM77.384 43.26C77.8629 44.8793 78.2793 46.2791 78.2585 46.3615C78.2585 46.4713 78.0503 46.6085 77.8004 46.6908C77.4464 46.8281 76.9467 46.4713 75.8224 45.3459C74.9895 44.5225 74.3024 43.9187 74.3024 44.001C74.3024 44.0834 74.5314 44.9068 74.8229 45.84C75.4476 47.871 75.4476 47.8985 74.9479 48.2279C74.6147 48.4749 74.469 48.2004 73.5945 45.4832C73.0531 43.8363 72.6783 42.3542 72.7408 42.2444C73.0739 41.5034 73.7402 41.7778 75.1144 43.2051C75.9057 44.0285 76.6136 44.6872 76.6761 44.6872C76.7385 44.6872 76.4887 43.8089 76.1347 42.7385C75.5725 41.1191 75.5309 40.7623 75.7807 40.5427C75.9473 40.4055 76.1763 40.2957 76.2804 40.2957C76.4054 40.2957 76.8843 41.6131 77.384 43.26Z" fill="#E6E6E6"/>
<path d="M95.1863 37.8529C93.7912 38.5665 92.542 40.3231 92.1255 42.2444C91.7091 44.0285 91.7091 44.5225 92.1047 46.2242C92.7502 49.1336 94.7074 51 97.0602 51C99.2881 51 100.912 49.71 101.787 47.2123C102.349 45.6753 102.411 43.1227 101.932 41.6406C101.412 39.9938 100.204 38.4567 98.955 37.8255C97.5391 37.1393 96.5813 37.1393 95.1863 37.8529ZM98.0388 41.2289C99.8711 42.1895 100.038 42.3817 99.7254 43.0129C99.5588 43.3423 99.4339 43.3423 98.8925 43.0404C98.5177 42.8483 98.2054 42.7385 98.1637 42.7934C98.1221 42.8483 97.7473 43.9736 97.3101 45.291C96.6021 47.4593 96.498 47.6515 96.1024 47.4593C95.5611 47.1849 95.5819 46.9653 96.3731 44.3853C96.7271 43.3148 96.9977 42.3268 96.9977 42.217C96.9977 42.1072 96.7271 41.8602 96.3731 41.668C95.686 41.2838 95.7068 41.3387 95.8734 40.7348C96.04 40.1584 96.0191 40.1584 98.0388 41.2289Z" fill="#E6E6E6"/>
<path d="M116.987 37.5784C115.841 38.0176 114.655 39.2253 113.967 40.7074C113.405 41.8876 113.343 42.2719 113.343 44.248C113.343 46.7183 113.572 47.5142 114.738 49.0513C115.737 50.3962 116.841 51 118.444 51C120.172 51 121.213 50.3687 122.317 48.7219C125.169 44.4402 123.108 37.8255 118.798 37.4138C118.194 37.3589 117.382 37.4138 116.987 37.5784ZM119.36 41.3661C119.985 42.2719 119.319 42.8757 118.465 42.1621C118.153 41.9151 117.965 41.9425 117.528 42.2993C116.966 42.7934 116.82 43.4795 117.236 43.6442C117.382 43.7266 117.944 43.6717 118.507 43.5619C119.735 43.2874 120.464 43.6168 120.734 44.55C121.109 45.8125 120.318 47.2672 119.027 47.7338C118.111 48.0357 117.153 47.624 117.028 46.8555C116.945 46.3066 117.59 45.9223 117.903 46.334C118.236 46.7732 118.985 46.6634 119.506 46.087C119.964 45.5929 119.985 45.5106 119.673 45.0989C119.402 44.7421 119.194 44.7146 118.277 44.9617C117.028 45.3185 116.445 45.044 116.133 43.9461C115.862 42.9855 116.237 41.7778 116.966 41.2563C117.757 40.6799 118.923 40.7348 119.36 41.3661Z" fill="#E6E6E6"/>
</svg>
