<svg width="114" height="52" viewBox="0 0 114 52" fill="none" xmlns="http://www.w3.org/2000/svg">
<path d="M99.1556 0.935474C98.1696 1.20794 97.3479 1.91633 96.8915 2.8427C96.4898 3.63284 96.0881 5.78529 95.3942 10.8531C95.1204 12.7875 94.6821 15.4304 94.4265 16.711C93.6779 20.3892 93.4771 21.8605 93.3492 24.3671C93.1301 28.4813 93.9153 31.3422 95.6316 32.6227C96.928 33.6036 98.8269 34.0395 100.16 33.6308C102.497 32.9497 103.501 30.879 103.501 26.7376C103.501 23.8222 103.099 21.9967 101.639 18.4002C100.05 14.4768 100.05 12.6241 101.675 12.6241C103.154 12.6241 103.958 14.722 104.25 19.3811C104.67 26.1381 104.798 27.5549 105.199 29.2442C105.911 32.3775 107.208 33.6853 109.545 33.6581C111.517 33.6581 112.777 32.2958 113.562 29.3259C113.945 27.9091 113.982 27.2825 114 23.3863C114 20.0078 113.927 18.7 113.69 17.5011C112.886 13.7139 111.261 12.1064 108.979 12.8965C106.642 13.7139 105.327 13.4415 105.327 12.1064C105.327 11.3435 105.729 10.9893 106.879 10.7168C109.837 10.0084 111.17 8.70062 111.17 6.54818C111.17 3.36038 108.924 1.53489 104.232 0.90823C101.803 0.608521 100.269 0.608521 99.1556 0.935474ZM105.108 3.68733C106.258 4.09603 106.897 4.80443 107.153 5.94876C107.664 8.29193 105.875 9.87221 102.68 9.89945C100.269 9.89945 99.3199 9.13656 99.1738 7.0931C98.973 4.45023 99.9589 3.38763 102.643 3.36038C103.538 3.36038 104.633 3.49661 105.108 3.68733Z" fill="#EFFF00"/>
<path d="M5.17734 1.31705C2.84021 1.94371 1.70816 3.22427 1.70816 5.29498C1.70816 8.10133 3.20539 9.13668 8.09875 9.76334C9.57772 9.95407 10.7098 10.4717 10.9654 11.0712C11.2393 11.6978 11.1115 13.0874 10.7463 13.5778C10.089 14.4769 8.97518 14.4224 6.89367 13.3326C4.42873 12.0793 3.26016 12.0248 2.23767 13.1146C0.685667 14.8039 -0.0994625 18.4821 0.0100905 23.5226C0.064867 26.0565 0.156161 26.9284 0.48482 28.0183C1.65339 31.86 4.24614 33.6582 8.64652 33.6582C10.9471 33.6582 12.7365 33.1405 14.0694 32.0507C15.3293 31.0426 15.3658 30.8791 14.9093 29.4895C14.5989 28.5632 14.4893 27.6641 14.4346 25.5661C14.3433 22.2148 14.6172 20.3076 15.8588 15.703C16.7352 12.488 16.7534 12.2972 16.4796 11.6706C15.7492 10.0086 13.5034 8.53727 10.8376 7.99235C10.0342 7.82887 8.84737 7.55641 8.20831 7.39293C6.4372 6.957 5.88943 5.75816 6.82064 4.45035C7.24059 3.85093 7.49621 3.7692 9.08473 3.68746C10.5272 3.60572 11.1662 3.68746 12.4078 4.17789C14.5624 5.04976 15.6397 5.186 15.7857 4.58658C16.1692 3.08804 14.8728 1.69849 12.6269 1.20806C10.8558 0.826614 6.78412 0.881107 5.17734 1.31705Z" fill="#EFFF00"/>
<path d="M19.8392 1.37122C19.3097 2.27034 19.1636 3.00599 18.5246 7.61059C17.7577 13.1416 17.7395 13.1688 16.8083 16.4383C15.804 19.9531 15.4571 22.1328 15.4388 24.8846C15.4388 26.7101 15.5301 27.5003 15.8588 28.6174C16.37 30.4428 17.5021 31.9959 18.8898 32.8133C19.8575 33.3582 20.2774 33.4399 22.7971 33.4399C24.6961 33.4672 25.9194 33.3309 26.5037 33.0857C26.9784 32.8678 27.3436 32.6225 27.3071 32.5408C26.3759 30.0069 26.029 27.2823 26.2846 24.2852C26.4854 21.8331 26.8141 20.1166 27.7453 16.6563C28.1287 15.2123 28.4026 13.8227 28.3478 13.6047C28.2931 13.3868 27.8731 12.9236 27.4166 12.5966C26.6863 12.079 26.4307 12.0245 24.9699 12.2152C23.1441 12.4059 22.6693 12.1879 22.1763 10.7711C21.8659 9.87201 21.519 6.41175 21.519 4.15033C21.519 2.16136 21.1356 0.908035 20.5331 0.908035C20.3139 0.908035 19.9853 1.126 19.8392 1.37122Z" fill="#EFFF00"/>
<path d="M34.8662 1.20761C33.6064 1.56181 32.2735 2.84238 31.5979 4.31367C30.9954 5.62148 30.8128 6.49336 30.1189 10.8527C29.9181 12.215 29.3521 14.7762 28.8956 16.5744C27.5444 21.8057 27.3253 23.1407 27.3071 25.8381C27.2706 29.7071 27.8366 31.6143 29.3886 32.7859C30.3563 33.5215 32.1274 33.8485 33.5699 33.576C35.2131 33.2218 36.2356 32.241 36.893 30.361C37.3677 29.0259 37.4042 28.6445 37.4042 26.0016C37.4042 22.5958 37.1851 21.2608 35.98 17.3918C35.3957 15.4573 35.1401 14.313 35.1219 13.4411C35.1219 12.2968 35.1766 12.1878 35.7609 11.7519C36.6556 11.0707 39.2483 11.0707 40.143 11.7519C40.7456 12.1878 40.7821 12.2968 40.7638 13.4684C40.7638 14.3947 40.5265 15.4301 39.9239 17.3101C38.6823 21.0973 38.4267 22.6231 38.4267 25.9743C38.4267 28.4265 38.4815 29.0259 38.8649 30.1702C39.3396 31.6688 40.3621 32.8949 41.4942 33.358C42.9184 33.9575 45.6389 33.6578 46.5154 32.8131C46.7345 32.5952 46.6432 32.3227 46.0041 31.2873C44.4156 28.7262 43.7948 25.3477 43.7948 19.4353C43.7948 15.3211 44.0322 13.1414 44.8173 9.89912C45.292 7.91016 45.292 7.85567 44.9999 6.46611C44.653 4.83134 43.5027 2.73339 42.5349 2.02499C42.1698 1.75253 41.4394 1.37109 40.9099 1.20761C39.7961 0.853409 36.0531 0.853409 34.8662 1.20761ZM40.636 3.93222C41.4029 4.28642 41.7863 5.13105 41.7863 6.43887C41.7863 8.72754 41.0742 9.21797 37.7694 9.21797C35.2131 9.19073 34.4463 8.83652 34.0994 7.50146C33.8255 6.46611 34.0994 5.02207 34.7019 4.36816C35.5418 3.44179 39.011 3.16933 40.636 3.93222Z" fill="#EFFF00"/>
<path d="M52.2121 1.31678C48.7429 2.78807 46.2962 6.95673 45.2372 13.1961C44.7807 15.8935 44.6894 22.0238 45.0729 24.7485C45.5841 28.4539 46.8622 31.0968 48.7977 32.3774C51.5913 34.2301 56.3934 34.3391 58.9131 32.6498C59.9356 31.9414 59.9903 31.8325 59.6069 31.0151C59.1322 29.9525 58.9131 28.3177 58.9131 25.8655C58.9313 23.1137 59.187 21.2065 60.2095 16.1659C61.2502 11.0437 61.2319 11.3979 60.5564 10.6895C59.6799 9.73584 58.2923 9.70859 56.3203 10.5532C55.4439 10.9347 54.3484 11.2616 53.8919 11.2616C52.1938 11.2616 51.3357 9.81758 51.5182 7.20195C51.6461 5.51269 52.0295 4.55907 52.9424 3.76893C53.7458 3.08778 55.7726 3.06054 57.5984 3.74169C59.0774 4.28661 59.6434 4.25937 59.9356 3.55097C60.0999 3.14227 60.0451 2.95155 59.6252 2.40663C58.8948 1.45301 58.0366 1.15331 55.4804 1.01707C53.7823 0.935337 52.9424 1.01707 52.2121 1.31678Z" fill="#EFFF00"/>
<path d="M64.0256 1.58918C63.6422 2.16135 63.4231 3.06047 62.9849 5.75784C62.6927 7.66507 62.3641 9.95374 62.2545 10.8801C62.145 11.7792 61.652 14.5583 61.1407 17.065C59.7531 24.04 59.607 27.3368 60.5199 30.2249C61.6337 33.6851 66.2897 34.9929 68.6269 32.4863C69.7589 31.2602 70.2702 29.4347 70.2702 26.6011C70.2702 24.0127 69.9415 22.4597 68.6999 19.2174C67.6774 16.5201 67.3488 14.5583 67.787 13.6047C68.1339 12.7873 68.846 12.4604 69.5216 12.7873C70.5623 13.3323 71.0188 15.9479 71.3474 23.2499C71.6213 29.2712 72.3517 31.7234 74.2323 33.0857C75.3461 33.9031 77.3181 33.9576 78.3406 33.2219L79.0344 32.7315L78.3041 31.5054C76.4782 28.3994 76.533 23.4678 78.4867 14.9943C79.1075 12.2969 79.1622 11.4795 78.7605 10.9891C78.2493 10.3624 76.9894 10.3624 75.6748 10.9618C73.502 11.97 72.4612 11.5613 72.4612 9.70852C72.4612 6.7387 74.9444 3.79611 77.0077 4.28654C77.9024 4.50451 78.5414 3.82336 78.5414 2.67902C78.5414 1.50744 77.9206 0.908024 76.7338 0.908024C74.9262 0.908024 73.5385 2.29758 72.4247 5.2674C70.891 9.29983 70.2337 10.1717 68.6816 10.1717C66.9653 10.1717 66.2715 8.67317 66.235 4.85871C66.235 3.79611 66.1437 2.51554 66.0159 1.99787C65.8333 1.18048 65.7055 1.04425 65.1394 0.962517C64.6464 0.908024 64.3908 1.04425 64.0256 1.58918Z" fill="#EFFF00"/>
<path d="M83.1242 1.20761C82.1565 1.53456 81.4992 2.46094 81.2436 3.796C81.134 4.39541 80.7871 6.82032 80.495 9.21798C80.1846 11.6156 79.582 15.2394 79.1255 17.2556C78.6873 19.2718 78.2309 21.9964 78.103 23.277C77.9022 25.3204 77.9205 25.8654 78.1761 27.4729C78.3404 28.481 78.7056 29.7343 78.9612 30.252C79.582 31.4781 81.0427 32.6769 82.5947 33.2218C85.4248 34.2027 90.8294 33.9302 92.7831 32.7041L93.477 32.2682L93.0388 30.9604C92.5275 29.4619 92.1806 27.2822 92.1806 25.5929C92.1806 23.8219 92.7101 19.6532 93.2761 16.9559C93.55 15.6481 93.7326 14.4765 93.6778 14.3947C93.4952 14.1223 91.4685 14.2585 90.0443 14.6672C87.6159 15.3756 86.0822 15.0486 85.6257 13.7681C85.3153 12.8962 85.3883 11.3977 85.7535 10.9345C86.3195 10.1716 86.8855 10.1171 89.5148 10.5803C92.5093 11.1252 93.3674 11.0162 93.6778 10.0081C93.8604 9.46319 93.8239 9.21798 93.5135 8.59131C93.1666 7.91016 93.057 7.85567 91.7059 7.85567C90.9025 7.88292 89.4783 7.9919 88.5106 8.10088C86.356 8.40059 85.8813 8.23711 85.4248 7.09278C84.804 5.59424 85.0597 3.93223 86.0091 3.33281C86.7395 2.89687 89.1314 3.16933 91.1216 3.90498C93.2944 4.72236 94.0978 4.36816 93.5683 2.78789C93.2761 1.91601 92.6736 1.50732 91.1581 1.18037C89.6061 0.853413 84.1467 0.880661 83.1242 1.20761Z" fill="#EFFF00"/>
<path d="M7.75185 38.2353C4.10008 40.3605 3.77142 47.7442 7.18582 50.5506C7.91618 51.15 8.33613 51.3135 9.34037 51.3135C12.0244 51.3135 13.8868 48.5889 13.9051 44.6382C13.9051 41.7228 12.7913 39.2434 11.0019 38.2353C9.77858 37.5542 8.92041 37.5542 7.75185 38.2353ZM10.162 41.5594C10.9289 42.0225 11.5862 42.4312 11.6227 42.4585C11.641 42.4857 11.6227 42.7309 11.5497 42.9762C11.4036 43.5483 11.148 43.5211 10.089 42.8672C9.4134 42.4312 9.19429 42.3767 9.06648 42.6492C8.77434 43.3304 8.93867 43.6301 9.83335 44.1205C10.4542 44.4474 10.7463 44.7744 10.7463 45.0741C10.7463 45.8642 10.4724 45.8915 9.54121 45.2921C8.70131 44.7199 8.66479 44.7199 8.42742 45.2103C8.04399 45.9732 8.11702 46.1095 9.24907 46.8451C10.4907 47.6897 10.4176 47.5808 10.2716 48.1529C10.1255 48.7251 9.70554 48.6161 8.08051 47.499L6.94846 46.7361L7.7701 43.7118C8.22658 42.0498 8.64653 40.6875 8.68305 40.6875C8.71956 40.6875 9.37688 41.0689 10.162 41.5594Z" fill="#E6E6E6"/>
<path d="M26.9966 37.9356C24.4769 39.08 23.071 42.8127 23.7831 46.4637C24.3674 49.5152 26.0289 51.3135 28.22 51.3135C29.2607 51.3135 29.6077 51.1772 30.4293 50.4688C33.8255 47.5808 33.2959 40.0063 29.5711 38.0991C28.713 37.6632 27.7453 37.6087 26.9966 37.9356ZM29.2607 42.7854C29.4616 46.4364 29.4068 47.4445 29.0234 47.7715C28.6947 48.0167 28.4574 47.717 27.0879 45.4011C25.5177 42.7854 25.5177 42.7582 25.9376 42.4312C26.3211 42.1043 26.4124 42.1588 26.9601 43.0851C27.2705 43.6301 27.727 44.5019 27.9644 44.9651C28.4026 45.946 28.713 46.1367 28.5669 45.3738C28.5304 45.1286 28.4208 44.066 28.3478 43.0307C28.2565 41.5866 28.293 41.1234 28.4756 40.9327C29.0234 40.415 29.1329 40.7147 29.2607 42.7854Z" fill="#E6E6E6"/>
<path d="M45.6937 38.1263C42.0237 40.0881 41.5672 47.608 44.9451 50.4961C45.7485 51.1772 46.0954 51.3135 47.1362 51.3135C48.6516 51.3135 49.7472 50.6051 50.6601 49.052C52.7234 45.4283 51.7556 39.8973 48.7795 38.2353C47.6474 37.6087 46.7527 37.5814 45.6937 38.1263ZM48.0308 41.5594C49.4003 42.404 49.7837 42.9762 49.1811 43.3304C49.0168 43.4121 48.4873 43.2214 47.9943 42.9217L47.0814 42.3495L46.8805 42.9217C46.6979 43.4393 46.8805 43.9298 47.2822 43.957C47.3553 43.957 47.7022 44.1477 48.0674 44.3657C48.6516 44.7199 48.7064 44.8561 48.5421 45.3193C48.3595 45.837 48.3412 45.837 47.41 45.2921C46.4971 44.7744 46.4423 44.7472 46.2232 45.2103C45.858 45.9732 45.9128 46.1095 47.0814 46.8724C48.2317 47.608 48.2682 47.6625 48.0126 48.2892C47.8665 48.6161 47.5926 48.5071 46.3693 47.7715C45.5476 47.281 44.8903 46.7634 44.8903 46.5999C44.8903 46.2184 46.4241 40.6875 46.5154 40.6875C46.5701 40.6875 47.2457 41.0689 48.0308 41.5594Z" fill="#E6E6E6"/>
<path d="M64.975 37.9356C63.5509 38.5895 62.5649 39.8973 61.9076 42.0225C61.1224 44.5837 61.5972 47.717 63.0761 49.6787C64.0256 50.9048 64.7742 51.3135 66.1619 51.3135C67.5313 51.3135 68.4077 50.7686 69.3572 49.3518C71.7308 45.8098 70.6718 39.5159 67.4582 38.0991C66.4905 37.6632 65.7054 37.6087 64.975 37.9356ZM67.8599 43.6301C68.2799 45.2376 68.6451 46.6271 68.6268 46.7089C68.6268 46.8179 68.4442 46.9541 68.2251 47.0358C67.9147 47.1721 67.4765 46.8179 66.4905 45.7008C65.7602 44.8834 65.1576 44.284 65.1576 44.3657C65.1576 44.4475 65.3585 45.2648 65.6141 46.1912C66.1619 48.2074 66.1619 48.2347 65.7237 48.5616C65.4315 48.8068 65.3037 48.5344 64.5368 45.837C64.0621 44.2022 63.7334 42.7309 63.7882 42.622C64.0804 41.8863 64.6646 42.1588 65.8697 43.5756C66.5636 44.393 67.1844 45.0469 67.2391 45.0469C67.2939 45.0469 67.0748 44.175 66.7644 43.1124C66.2714 41.5049 66.2349 41.1507 66.454 40.9327C66.6001 40.7965 66.8009 40.6875 66.8922 40.6875C67.0018 40.6875 67.4217 41.9953 67.8599 43.6301Z" fill="#E6E6E6"/>
<path d="M83.4712 38.2626C82.2478 38.971 81.1523 40.7147 80.7871 42.622C80.422 44.393 80.422 44.8834 80.7689 46.5726C81.3349 49.4607 83.0512 51.3135 85.1145 51.3135C87.0682 51.3135 88.4924 50.0329 89.2592 47.5535C89.7522 46.0277 89.807 43.4938 89.387 42.0225C88.9306 40.3878 87.8716 38.862 86.776 38.2353C85.5344 37.5542 84.6945 37.5542 83.4712 38.2626ZM85.9726 41.6139C87.5794 42.5675 87.7255 42.7582 87.4516 43.3849C87.3055 43.7118 87.196 43.7118 86.7213 43.4121C86.3926 43.2214 86.1187 43.1124 86.0822 43.1669C86.0457 43.2214 85.717 44.3385 85.3336 45.6463C84.7128 47.7987 84.6215 47.9894 84.2746 47.7987C83.7998 47.5263 83.8181 47.3083 84.5119 44.7472C84.8223 43.6846 85.0597 42.7037 85.0597 42.5947C85.0597 42.4857 84.8223 42.2405 84.5119 42.0498C83.9094 41.6683 83.9277 41.7228 84.0737 41.1234C84.2198 40.5513 84.2015 40.5513 85.9726 41.6139Z" fill="#E6E6E6"/>
<path d="M102.588 37.9901C101.584 38.4261 100.543 39.6249 99.9406 41.0962C99.4477 42.2678 99.3929 42.6492 99.3929 44.6109C99.3929 47.0631 99.5937 47.8532 100.616 49.379C101.493 50.7141 102.46 51.3135 103.866 51.3135C105.382 51.3135 106.295 50.6868 107.262 49.052C109.764 44.8016 107.956 38.2353 104.177 37.8266C103.647 37.7721 102.935 37.8266 102.588 37.9901ZM104.67 41.7501C105.217 42.6492 104.633 43.2486 103.885 42.5402C103.611 42.295 103.446 42.3223 103.063 42.6765C102.57 43.1669 102.442 43.848 102.807 44.0115C102.935 44.0932 103.428 44.0388 103.921 43.9298C104.998 43.6573 105.637 43.9843 105.875 44.9106C106.203 46.164 105.51 47.608 104.378 48.0712C103.574 48.3709 102.734 47.9622 102.625 47.1993C102.552 46.6544 103.118 46.2729 103.392 46.6816C103.684 47.1176 104.341 47.0086 104.797 46.4364C105.199 45.946 105.217 45.8642 104.944 45.4556C104.706 45.1014 104.524 45.0741 103.72 45.3193C102.625 45.6735 102.113 45.4011 101.84 44.3112C101.602 43.3576 101.931 42.1588 102.57 41.6411C103.264 41.0689 104.286 41.1234 104.67 41.7501Z" fill="#E6E6E6"/>
</svg>
